<mxfile host="app.diagrams.net" modified="2023-04-10T16:18:22.725Z" agent="Mozilla/5.0 (Windows NT 10.0; Win64; x64) AppleWebKit/537.36 (KHTML, like Gecko) Chrome/112.0.0.0 Safari/537.36" etag="LMJ7RxExL5Mqg-ur7hbp" version="21.1.4" type="device">
  <diagram name="Página-1" id="Wz-IRqXGFXrzcK0PEJ4r">
    <mxGraphModel dx="2261" dy="1965" grid="1" gridSize="10" guides="1" tooltips="1" connect="1" arrows="1" fold="1" page="1" pageScale="1" pageWidth="827" pageHeight="1169" math="0" shadow="0">
      <root>
        <mxCell id="0" />
        <mxCell id="1" parent="0" />
        <mxCell id="NKS2N1qNFekZft-ToN5I-8" style="edgeStyle=orthogonalEdgeStyle;rounded=0;orthogonalLoop=1;jettySize=auto;html=1;entryX=0.5;entryY=0;entryDx=0;entryDy=0;" parent="1" source="NKS2N1qNFekZft-ToN5I-1" target="NKS2N1qNFekZft-ToN5I-6" edge="1">
          <mxGeometry relative="1" as="geometry" />
        </mxCell>
        <mxCell id="NKS2N1qNFekZft-ToN5I-17" style="edgeStyle=orthogonalEdgeStyle;rounded=0;orthogonalLoop=1;jettySize=auto;html=1;entryX=0;entryY=0.5;entryDx=0;entryDy=0;" parent="1" source="NKS2N1qNFekZft-ToN5I-1" target="NKS2N1qNFekZft-ToN5I-16" edge="1">
          <mxGeometry relative="1" as="geometry" />
        </mxCell>
        <mxCell id="NKS2N1qNFekZft-ToN5I-23" style="edgeStyle=orthogonalEdgeStyle;rounded=0;orthogonalLoop=1;jettySize=auto;html=1;entryX=1;entryY=0.5;entryDx=0;entryDy=0;" parent="1" source="NKS2N1qNFekZft-ToN5I-1" target="NKS2N1qNFekZft-ToN5I-22" edge="1">
          <mxGeometry relative="1" as="geometry" />
        </mxCell>
        <mxCell id="NKS2N1qNFekZft-ToN5I-52" style="edgeStyle=orthogonalEdgeStyle;rounded=0;orthogonalLoop=1;jettySize=auto;html=1;entryX=0.5;entryY=0;entryDx=0;entryDy=0;" parent="1" source="NKS2N1qNFekZft-ToN5I-1" target="NKS2N1qNFekZft-ToN5I-48" edge="1">
          <mxGeometry relative="1" as="geometry">
            <Array as="points">
              <mxPoint x="486" y="130" />
            </Array>
          </mxGeometry>
        </mxCell>
        <mxCell id="vKn0tOE-v8vGlU7VSMfp-11" style="edgeStyle=orthogonalEdgeStyle;rounded=0;orthogonalLoop=1;jettySize=auto;html=1;entryX=0.5;entryY=1;entryDx=0;entryDy=0;" edge="1" parent="1" source="NKS2N1qNFekZft-ToN5I-1" target="vKn0tOE-v8vGlU7VSMfp-10">
          <mxGeometry relative="1" as="geometry" />
        </mxCell>
        <mxCell id="NKS2N1qNFekZft-ToN5I-1" value="USUARIO" style="rounded=0;whiteSpace=wrap;html=1;fillColor=#f8cecc;strokeColor=#b85450;" parent="1" vertex="1">
          <mxGeometry x="339" y="80" width="120" height="60" as="geometry" />
        </mxCell>
        <mxCell id="NKS2N1qNFekZft-ToN5I-13" style="edgeStyle=orthogonalEdgeStyle;rounded=0;orthogonalLoop=1;jettySize=auto;html=1;entryX=0.125;entryY=0.625;entryDx=0;entryDy=0;entryPerimeter=0;" parent="1" source="NKS2N1qNFekZft-ToN5I-2" target="NKS2N1qNFekZft-ToN5I-6" edge="1">
          <mxGeometry relative="1" as="geometry">
            <Array as="points">
              <mxPoint x="299" y="320" />
              <mxPoint x="369" y="320" />
            </Array>
          </mxGeometry>
        </mxCell>
        <mxCell id="NKS2N1qNFekZft-ToN5I-2" value="BÁSICO" style="rounded=0;whiteSpace=wrap;html=1;fillColor=#f8cecc;strokeColor=#b85450;" parent="1" vertex="1">
          <mxGeometry x="239" y="380" width="120" height="60" as="geometry" />
        </mxCell>
        <mxCell id="NKS2N1qNFekZft-ToN5I-14" style="edgeStyle=orthogonalEdgeStyle;rounded=0;orthogonalLoop=1;jettySize=auto;html=1;entryX=0.875;entryY=0.638;entryDx=0;entryDy=0;entryPerimeter=0;" parent="1" source="NKS2N1qNFekZft-ToN5I-3" target="NKS2N1qNFekZft-ToN5I-6" edge="1">
          <mxGeometry relative="1" as="geometry">
            <Array as="points">
              <mxPoint x="499" y="320" />
              <mxPoint x="429" y="320" />
            </Array>
          </mxGeometry>
        </mxCell>
        <mxCell id="NKS2N1qNFekZft-ToN5I-3" value="ADMIN" style="rounded=0;whiteSpace=wrap;html=1;fillColor=#f8cecc;strokeColor=#b85450;" parent="1" vertex="1">
          <mxGeometry x="439" y="380" width="120" height="60" as="geometry" />
        </mxCell>
        <mxCell id="NKS2N1qNFekZft-ToN5I-9" value="(1,1)" style="edgeStyle=orthogonalEdgeStyle;rounded=0;orthogonalLoop=1;jettySize=auto;html=1;entryX=0.5;entryY=1;entryDx=0;entryDy=0;" parent="1" source="NKS2N1qNFekZft-ToN5I-6" target="NKS2N1qNFekZft-ToN5I-1" edge="1">
          <mxGeometry relative="1" as="geometry" />
        </mxCell>
        <mxCell id="NKS2N1qNFekZft-ToN5I-10" value="(1.n)" style="edgeStyle=orthogonalEdgeStyle;rounded=0;orthogonalLoop=1;jettySize=auto;html=1;entryX=0.5;entryY=0;entryDx=0;entryDy=0;" parent="1" source="NKS2N1qNFekZft-ToN5I-6" target="NKS2N1qNFekZft-ToN5I-2" edge="1">
          <mxGeometry relative="1" as="geometry">
            <Array as="points">
              <mxPoint x="369" y="320" />
              <mxPoint x="299" y="320" />
            </Array>
          </mxGeometry>
        </mxCell>
        <mxCell id="NKS2N1qNFekZft-ToN5I-11" value="(1,n)" style="edgeStyle=orthogonalEdgeStyle;rounded=0;orthogonalLoop=1;jettySize=auto;html=1;entryX=0.5;entryY=0;entryDx=0;entryDy=0;" parent="1" source="NKS2N1qNFekZft-ToN5I-6" target="NKS2N1qNFekZft-ToN5I-3" edge="1">
          <mxGeometry relative="1" as="geometry">
            <Array as="points">
              <mxPoint x="429" y="320" />
              <mxPoint x="499" y="320" />
            </Array>
          </mxGeometry>
        </mxCell>
        <mxCell id="NKS2N1qNFekZft-ToN5I-6" value="ES_UN" style="rhombus;whiteSpace=wrap;html=1;fillColor=#fff2cc;strokeColor=#d6b656;" parent="1" vertex="1">
          <mxGeometry x="359" y="210" width="80" height="80" as="geometry" />
        </mxCell>
        <mxCell id="NKS2N1qNFekZft-ToN5I-20" style="edgeStyle=orthogonalEdgeStyle;rounded=0;orthogonalLoop=1;jettySize=auto;html=1;entryX=1;entryY=0.5;entryDx=0;entryDy=0;" parent="1" source="NKS2N1qNFekZft-ToN5I-15" target="NKS2N1qNFekZft-ToN5I-16" edge="1">
          <mxGeometry relative="1" as="geometry" />
        </mxCell>
        <mxCell id="NKS2N1qNFekZft-ToN5I-51" style="edgeStyle=orthogonalEdgeStyle;rounded=0;orthogonalLoop=1;jettySize=auto;html=1;entryX=0.5;entryY=1;entryDx=0;entryDy=0;" parent="1" source="NKS2N1qNFekZft-ToN5I-15" target="NKS2N1qNFekZft-ToN5I-47" edge="1">
          <mxGeometry relative="1" as="geometry" />
        </mxCell>
        <mxCell id="vKn0tOE-v8vGlU7VSMfp-26" style="edgeStyle=orthogonalEdgeStyle;rounded=0;orthogonalLoop=1;jettySize=auto;html=1;entryX=0.5;entryY=0;entryDx=0;entryDy=0;" edge="1" parent="1" source="NKS2N1qNFekZft-ToN5I-15" target="vKn0tOE-v8vGlU7VSMfp-25">
          <mxGeometry relative="1" as="geometry" />
        </mxCell>
        <mxCell id="NKS2N1qNFekZft-ToN5I-15" value="EQUIPO" style="rounded=0;whiteSpace=wrap;html=1;fillColor=#f8cecc;strokeColor=#b85450;" parent="1" vertex="1">
          <mxGeometry x="699" y="80" width="120" height="60" as="geometry" />
        </mxCell>
        <mxCell id="vKn0tOE-v8vGlU7VSMfp-2" value="(1,n)" style="edgeStyle=orthogonalEdgeStyle;rounded=0;orthogonalLoop=1;jettySize=auto;html=1;entryX=1;entryY=0.5;entryDx=0;entryDy=0;" edge="1" parent="1" source="NKS2N1qNFekZft-ToN5I-16" target="NKS2N1qNFekZft-ToN5I-1">
          <mxGeometry relative="1" as="geometry" />
        </mxCell>
        <mxCell id="vKn0tOE-v8vGlU7VSMfp-3" value="(1,1)" style="edgeStyle=orthogonalEdgeStyle;rounded=0;orthogonalLoop=1;jettySize=auto;html=1;entryX=0;entryY=0.5;entryDx=0;entryDy=0;" edge="1" parent="1" source="NKS2N1qNFekZft-ToN5I-16" target="NKS2N1qNFekZft-ToN5I-15">
          <mxGeometry relative="1" as="geometry" />
        </mxCell>
        <mxCell id="NKS2N1qNFekZft-ToN5I-16" value="TIENE" style="rhombus;whiteSpace=wrap;html=1;fillColor=#fff2cc;strokeColor=#d6b656;" parent="1" vertex="1">
          <mxGeometry x="539" y="70" width="80" height="80" as="geometry" />
        </mxCell>
        <mxCell id="NKS2N1qNFekZft-ToN5I-27" style="edgeStyle=orthogonalEdgeStyle;rounded=0;orthogonalLoop=1;jettySize=auto;html=1;entryX=0;entryY=0.5;entryDx=0;entryDy=0;" parent="1" source="NKS2N1qNFekZft-ToN5I-21" target="NKS2N1qNFekZft-ToN5I-22" edge="1">
          <mxGeometry relative="1" as="geometry" />
        </mxCell>
        <mxCell id="NKS2N1qNFekZft-ToN5I-45" style="edgeStyle=orthogonalEdgeStyle;rounded=0;orthogonalLoop=1;jettySize=auto;html=1;entryX=0.5;entryY=1;entryDx=0;entryDy=0;" parent="1" source="NKS2N1qNFekZft-ToN5I-21" target="NKS2N1qNFekZft-ToN5I-44" edge="1">
          <mxGeometry relative="1" as="geometry" />
        </mxCell>
        <mxCell id="vKn0tOE-v8vGlU7VSMfp-24" style="edgeStyle=orthogonalEdgeStyle;rounded=0;orthogonalLoop=1;jettySize=auto;html=1;entryX=0.5;entryY=0;entryDx=0;entryDy=0;" edge="1" parent="1" source="NKS2N1qNFekZft-ToN5I-21" target="vKn0tOE-v8vGlU7VSMfp-23">
          <mxGeometry relative="1" as="geometry" />
        </mxCell>
        <mxCell id="NKS2N1qNFekZft-ToN5I-21" value="LOCALIZACIÓN" style="rounded=0;whiteSpace=wrap;html=1;fillColor=#f8cecc;strokeColor=#b85450;" parent="1" vertex="1">
          <mxGeometry x="9" y="80" width="130" height="60" as="geometry" />
        </mxCell>
        <mxCell id="vKn0tOE-v8vGlU7VSMfp-5" value="(1,1)" style="edgeStyle=orthogonalEdgeStyle;rounded=0;orthogonalLoop=1;jettySize=auto;html=1;entryX=1;entryY=0.5;entryDx=0;entryDy=0;" edge="1" parent="1" source="NKS2N1qNFekZft-ToN5I-22" target="NKS2N1qNFekZft-ToN5I-21">
          <mxGeometry relative="1" as="geometry" />
        </mxCell>
        <mxCell id="vKn0tOE-v8vGlU7VSMfp-6" value="(1,n)" style="edgeStyle=orthogonalEdgeStyle;rounded=0;orthogonalLoop=1;jettySize=auto;html=1;entryX=0;entryY=0.5;entryDx=0;entryDy=0;" edge="1" parent="1" source="NKS2N1qNFekZft-ToN5I-22" target="NKS2N1qNFekZft-ToN5I-1">
          <mxGeometry relative="1" as="geometry" />
        </mxCell>
        <mxCell id="NKS2N1qNFekZft-ToN5I-22" value="TIENE" style="rhombus;whiteSpace=wrap;html=1;fillColor=#fff2cc;strokeColor=#d6b656;" parent="1" vertex="1">
          <mxGeometry x="199" y="70" width="81" height="80" as="geometry" />
        </mxCell>
        <mxCell id="NKS2N1qNFekZft-ToN5I-29" value="1:N" style="text;html=1;strokeColor=none;fillColor=none;align=center;verticalAlign=middle;whiteSpace=wrap;rounded=0;" parent="1" vertex="1">
          <mxGeometry x="209" y="40" width="60" height="30" as="geometry" />
        </mxCell>
        <mxCell id="NKS2N1qNFekZft-ToN5I-30" value="" style="shape=curlyBracket;whiteSpace=wrap;html=1;rounded=1;flipH=1;labelPosition=right;verticalLabelPosition=middle;align=left;verticalAlign=middle;rotation=90;" parent="1" vertex="1">
          <mxGeometry x="389" y="240" width="20" height="120" as="geometry" />
        </mxCell>
        <mxCell id="NKS2N1qNFekZft-ToN5I-44" value="&lt;b&gt;&lt;u&gt;id_localización&lt;/u&gt;&lt;/b&gt;" style="ellipse;whiteSpace=wrap;html=1;fillColor=#dae8fc;strokeColor=#6c8ebf;" parent="1" vertex="1">
          <mxGeometry x="9" y="10" width="101" height="30" as="geometry" />
        </mxCell>
        <mxCell id="NKS2N1qNFekZft-ToN5I-47" value="&lt;b&gt;&lt;u&gt;id_equipo&lt;/u&gt;&lt;/b&gt;" style="ellipse;whiteSpace=wrap;html=1;fillColor=#dae8fc;strokeColor=#6c8ebf;" parent="1" vertex="1">
          <mxGeometry x="690" y="10" width="70" height="30" as="geometry" />
        </mxCell>
        <mxCell id="NKS2N1qNFekZft-ToN5I-48" value="&lt;b&gt;&lt;u&gt;id_usuario&lt;/u&gt;&lt;/b&gt;" style="ellipse;whiteSpace=wrap;html=1;fillColor=#dae8fc;strokeColor=#6c8ebf;" parent="1" vertex="1">
          <mxGeometry x="451.75" y="170" width="69" height="30" as="geometry" />
        </mxCell>
        <mxCell id="vKn0tOE-v8vGlU7VSMfp-1" value="1:N" style="text;html=1;strokeColor=none;fillColor=none;align=center;verticalAlign=middle;whiteSpace=wrap;rounded=0;" vertex="1" parent="1">
          <mxGeometry x="430" y="235" width="60" height="30" as="geometry" />
        </mxCell>
        <mxCell id="vKn0tOE-v8vGlU7VSMfp-4" value="1:N" style="text;html=1;strokeColor=none;fillColor=none;align=center;verticalAlign=middle;whiteSpace=wrap;rounded=0;" vertex="1" parent="1">
          <mxGeometry x="549" y="40" width="60" height="30" as="geometry" />
        </mxCell>
        <mxCell id="vKn0tOE-v8vGlU7VSMfp-12" value="(1,1)" style="edgeStyle=orthogonalEdgeStyle;rounded=0;orthogonalLoop=1;jettySize=auto;html=1;entryX=0.5;entryY=0;entryDx=0;entryDy=0;" edge="1" parent="1" source="vKn0tOE-v8vGlU7VSMfp-10" target="NKS2N1qNFekZft-ToN5I-1">
          <mxGeometry relative="1" as="geometry" />
        </mxCell>
        <mxCell id="vKn0tOE-v8vGlU7VSMfp-15" style="edgeStyle=orthogonalEdgeStyle;rounded=0;orthogonalLoop=1;jettySize=auto;html=1;entryX=0.5;entryY=1;entryDx=0;entryDy=0;" edge="1" parent="1" source="vKn0tOE-v8vGlU7VSMfp-10" target="vKn0tOE-v8vGlU7VSMfp-14">
          <mxGeometry relative="1" as="geometry" />
        </mxCell>
        <mxCell id="vKn0tOE-v8vGlU7VSMfp-10" value="TIENE" style="rhombus;whiteSpace=wrap;html=1;fillColor=#fff2cc;strokeColor=#d6b656;" vertex="1" parent="1">
          <mxGeometry x="359" y="-60" width="80" height="80" as="geometry" />
        </mxCell>
        <mxCell id="vKn0tOE-v8vGlU7VSMfp-16" value="(1,1)" style="edgeStyle=orthogonalEdgeStyle;rounded=0;orthogonalLoop=1;jettySize=auto;html=1;entryX=0.5;entryY=0;entryDx=0;entryDy=0;" edge="1" parent="1" source="vKn0tOE-v8vGlU7VSMfp-14" target="vKn0tOE-v8vGlU7VSMfp-10">
          <mxGeometry relative="1" as="geometry" />
        </mxCell>
        <mxCell id="vKn0tOE-v8vGlU7VSMfp-18" style="edgeStyle=orthogonalEdgeStyle;rounded=0;orthogonalLoop=1;jettySize=auto;html=1;entryX=0.5;entryY=1;entryDx=0;entryDy=0;" edge="1" parent="1" source="vKn0tOE-v8vGlU7VSMfp-14" target="vKn0tOE-v8vGlU7VSMfp-17">
          <mxGeometry relative="1" as="geometry" />
        </mxCell>
        <mxCell id="vKn0tOE-v8vGlU7VSMfp-20" style="edgeStyle=orthogonalEdgeStyle;rounded=0;orthogonalLoop=1;jettySize=auto;html=1;entryX=0.5;entryY=1;entryDx=0;entryDy=0;" edge="1" parent="1" source="vKn0tOE-v8vGlU7VSMfp-14" target="vKn0tOE-v8vGlU7VSMfp-19">
          <mxGeometry relative="1" as="geometry" />
        </mxCell>
        <mxCell id="vKn0tOE-v8vGlU7VSMfp-22" style="edgeStyle=orthogonalEdgeStyle;rounded=0;orthogonalLoop=1;jettySize=auto;html=1;entryX=0.5;entryY=0;entryDx=0;entryDy=0;" edge="1" parent="1" source="vKn0tOE-v8vGlU7VSMfp-14" target="vKn0tOE-v8vGlU7VSMfp-21">
          <mxGeometry relative="1" as="geometry" />
        </mxCell>
        <mxCell id="vKn0tOE-v8vGlU7VSMfp-14" value="CREDENCIALES" style="rounded=0;whiteSpace=wrap;html=1;fillColor=#f8cecc;strokeColor=#b85450;" vertex="1" parent="1">
          <mxGeometry x="339" y="-180" width="120" height="60" as="geometry" />
        </mxCell>
        <mxCell id="vKn0tOE-v8vGlU7VSMfp-17" value="&lt;b&gt;&lt;u&gt;id_creedencial&lt;/u&gt;&lt;/b&gt;" style="ellipse;whiteSpace=wrap;html=1;fillColor=#dae8fc;strokeColor=#6c8ebf;" vertex="1" parent="1">
          <mxGeometry x="346.25" y="-250" width="105.5" height="30" as="geometry" />
        </mxCell>
        <mxCell id="vKn0tOE-v8vGlU7VSMfp-19" value="password" style="ellipse;whiteSpace=wrap;html=1;fillColor=#dae8fc;strokeColor=#6c8ebf;" vertex="1" parent="1">
          <mxGeometry x="239" y="-210" width="76.5" height="30" as="geometry" />
        </mxCell>
        <mxCell id="vKn0tOE-v8vGlU7VSMfp-21" value="face_id" style="ellipse;whiteSpace=wrap;html=1;fillColor=#dae8fc;strokeColor=#6c8ebf;" vertex="1" parent="1">
          <mxGeometry x="239" y="-120" width="76.5" height="30" as="geometry" />
        </mxCell>
        <mxCell id="vKn0tOE-v8vGlU7VSMfp-23" value="datos_localización" style="ellipse;whiteSpace=wrap;html=1;fillColor=#dae8fc;strokeColor=#6c8ebf;" vertex="1" parent="1">
          <mxGeometry x="-3.75" y="180" width="126.5" height="30" as="geometry" />
        </mxCell>
        <mxCell id="vKn0tOE-v8vGlU7VSMfp-25" value="datos_equipo" style="ellipse;whiteSpace=wrap;html=1;fillColor=#dae8fc;strokeColor=#6c8ebf;" vertex="1" parent="1">
          <mxGeometry x="711.88" y="180" width="94.25" height="30" as="geometry" />
        </mxCell>
        <mxCell id="vKn0tOE-v8vGlU7VSMfp-27" value="1:1" style="text;html=1;strokeColor=none;fillColor=none;align=center;verticalAlign=middle;whiteSpace=wrap;rounded=0;" vertex="1" parent="1">
          <mxGeometry x="430" y="-35" width="60" height="30" as="geometry" />
        </mxCell>
        <mxCell id="vKn0tOE-v8vGlU7VSMfp-28" value="Una localización la pueden tener 0 o muchos usuarios y un usuario tiene solo una localización" style="text;html=1;strokeColor=none;fillColor=none;align=center;verticalAlign=middle;whiteSpace=wrap;rounded=0;" vertex="1" parent="1">
          <mxGeometry x="159" y="170" width="161" height="30" as="geometry" />
        </mxCell>
        <mxCell id="vKn0tOE-v8vGlU7VSMfp-30" value="Un usuario tiene unas credenciales y unas credenciales son de un usuario" style="text;html=1;strokeColor=none;fillColor=none;align=center;verticalAlign=middle;whiteSpace=wrap;rounded=0;" vertex="1" parent="1">
          <mxGeometry x="196.75" y="-30" width="161" height="30" as="geometry" />
        </mxCell>
        <mxCell id="vKn0tOE-v8vGlU7VSMfp-31" value="Un usuario tiene un equipo favorito y un equipo puede ser de varios usuarios" style="text;html=1;strokeColor=none;fillColor=none;align=center;verticalAlign=middle;whiteSpace=wrap;rounded=0;" vertex="1" parent="1">
          <mxGeometry x="498.5" width="161" height="30" as="geometry" />
        </mxCell>
        <mxCell id="vKn0tOE-v8vGlU7VSMfp-33" value="Un usuario puede ser usuario administrador o usuario básico" style="text;html=1;strokeColor=none;fillColor=none;align=center;verticalAlign=middle;whiteSpace=wrap;rounded=0;" vertex="1" parent="1">
          <mxGeometry x="480" y="235" width="161" height="30" as="geometry" />
        </mxCell>
      </root>
    </mxGraphModel>
  </diagram>
</mxfile>
